<?xml version="1.0" encoding="utf-8"?>
<!-- Generator: Adobe Illustrator 14.0.0, SVG Export Plug-In . SVG Version: 6.00 Build 43363)  -->
<!DOCTYPE svg PUBLIC "-//W3C//DTD SVG 1.1//EN" "http://www.w3.org/Graphics/SVG/1.1/DTD/svg11.dtd">
<svg version="1.1" id="Layer_1" xmlns="http://www.w3.org/2000/svg" xmlns:xlink="http://www.w3.org/1999/xlink" x="0px" y="0px"
	 width="302px" height="303px" viewBox="0 0 302 303" enable-background="new 0 0 302 303" xml:space="preserve">
<circle cx="152.195" cy="152.765" r="146.88"/>
<circle cx="152.194" cy="152.765" r="142.245"/>
<g>
	<defs>
		<circle id="SVGID_1_" cx="152.194" cy="152.765" r="113.266"/>
	</defs>
	<clipPath id="SVGID_2_">
		<use xlink:href="#SVGID_1_"  overflow="visible"/>
	</clipPath>
	
		<linearGradient id="SVGID_3_" gradientUnits="userSpaceOnUse" x1="-154.5" y1="596.5" x2="-153.5" y2="596.5" gradientTransform="matrix(0 93.8747 93.8747 0 -55844.0742 14607.4141)">
		<stop  offset="0" style="stop-color:#000000"/>
		<stop  offset="0.1" style="stop-color:#000000"/>
		<stop  offset="0.9" style="stop-color:#D7182A"/>
		<stop  offset="1" style="stop-color:#D7182A"/>
	</linearGradient>
	<rect x="38.929" y="39.499" clip-path="url(#SVGID_2_)" fill="url(#SVGID_3_)" width="226.531" height="226.531"/>
</g>
<circle fill="none" stroke="#D7182A" stroke-width="3" cx="152.194" cy="152.765" r="113.266"/>
<circle fill="none" stroke="#D7182A" stroke-width="3" cx="152.194" cy="152.765" r="113.266"/>
<path fill="#FFFFFF" d="M166.139,113.565v-0.5H47.71c-0.063,0.167-0.13,0.333-0.192,0.5H166.139z"/>
<path fill="#FFFFFF" d="M166.139,119.416v-1H45.834c-0.107,0.333-0.209,0.667-0.313,1H166.139z"/>
<path fill="#FFFFFF" d="M166.139,125.266v-1.5H44.255c-0.134,0.499-0.262,0.999-0.389,1.5H166.139z"/>
<path fill="#FFFFFF" d="M166.139,131.115v-2H42.967c-0.144,0.666-0.29,1.331-0.422,2H166.139z"/>
<path fill="#FFFFFF" d="M166.139,136.965v-2.5H41.94c-0.138,0.831-0.258,1.666-0.377,2.5H166.139z"/>
<path fill="#FFFFFF" d="M166.139,142.815v-3H41.194c-0.116,0.999-0.223,1.998-0.312,3H166.139z"/>
<polygon fill="#FFFFFF" points="217.328,235.839 230.274,235.839 244.098,203.063 256.775,203.063 260.626,193.932 235.008,193.932 
	"/>
<path fill="#FFFFFF" d="M167.545,193.932l-13.027,19.897c-2.186,3.405-4.735,7.835-4.735,7.835s1.256-4.43,1.943-7.835l3.622-19.897
	h-11.243l-13.65,19.762c-2.478,3.609-5.066,7.971-5.066,7.971s1.294-4.361,2.011-7.835l4.031-19.897h-13.628h-16.899l-3.851,9.132
	h19.29l-5.245,32.775h13.219l14.16-20.647c2.38-3.543,4.517-7.156,4.517-7.156s-0.909,3.613-1.52,7.156l-3.392,20.647h13.287
	l29.191-41.907H167.545z"/>
<path fill="#FFFFFF" d="M78.6,226.775h-5.11l-3.823,9.063h7.428c14.174,0,21.236-5.112,26.036-16.491l5.575-13.22H95.757
	l-5.229,12.401C87.998,224.527,85.481,226.775,78.6,226.775z"/>
<path fill="#FFFFFF" d="M177.384,206.469c-3.104,7.36-1.018,12.268,7.705,12.268h7.496c2.589,0,3.732,1.156,2.501,4.088
	c-1.18,2.793-3.547,3.884-6.068,3.884H160.8l-6.364,9.131h34.546c8.653,0,15.066-4.703,18.373-12.538
	c3.306-7.835,1.101-12.469-7.485-12.469h-7.768c-2.726,0-3.736-1.16-2.588-3.886c1.238-2.93,3.343-3.883,6.069-3.883h32.503
	l3.855-9.132h-35.912C187.1,193.932,180.574,198.905,177.384,206.469z"/>
<path fill="#FFFFFF" d="M187.485,128.317h-23.26c-0.801,1.389-10.829,18.758-11.63,20.144c0.497,0.861,4.565,7.907,7.763,13.446
	c7.808,0.492,16.29,0.287,25.101-0.728c2.323-0.268,4.611-0.587,6.86-0.949c2.996-5.191,6.345-10.992,6.793-11.769L187.485,128.317z
	"/>
<path fill="#FFFFFF" d="M162.432,165.497c0.936,1.619,1.61,2.788,1.794,3.106c1.599,0,21.662,0,23.26,0
	c0.216-0.373,1.105-1.915,2.302-3.988c-0.123,0.015-0.243,0.032-0.367,0.046C179.962,165.749,170.851,165.987,162.432,165.497z"/>
<path fill="#FFFFFF" d="M199.016,104.917c-6.329-0.144-13.023,0.15-19.922,0.943c-2.532,0.292-5.02,0.648-7.462,1.053
	c7.229,3.515,14.298,6.642,21.035,9.336c2.903-5.028,6.015-10.418,6.445-11.165L199.016,104.917z"/>
<path fill="#FFFFFF" d="M197.721,102.673l-10.235-17.734c-1.602,0-21.661,0-23.26,0c-0.514,0.89-4.829,8.366-8.067,13.974
	c3.405,1.872,6.914,3.728,10.521,5.552c0.872,0.44,1.741,0.87,2.609,1.3c4.233-0.835,8.613-1.53,13.118-2.049
	C187.638,103.113,192.76,102.776,197.721,102.673z"/>
<path fill="#FFFFFF" d="M187.485,125.227c0.283-0.491,1.721-2.981,3.495-6.055c-7.161-3.018-14.599-6.448-22.162-10.273
	c-0.712-0.359-1.409-0.724-2.113-1.085c-3.813,0.767-7.481,1.668-10.984,2.683c3.271,5.666,7.968,13.798,8.505,14.73H187.485z"/>
<path fill="#FFFFFF" d="M154.735,101.379c-1.115,1.929-1.934,3.348-2.14,3.704c0.224,0.387,1.169,2.024,2.431,4.211
	c3.082-0.934,6.292-1.784,9.609-2.546C161.244,104.979,157.944,103.185,154.735,101.379z"/>
<path fill="#FFFFFF" d="M201.792,150.008c-0.386,0.665-2.898,5.021-5.495,9.52c11.008-2.087,20.906-5.277,28.964-9.157
	c-0.093-0.16-0.166-0.288-0.209-0.362H201.792z"/>
<path fill="#FFFFFF" d="M190.196,170.091c-0.008,0.017-0.025,0.044-0.032,0.06c0.799,1.384,10.828,18.758,11.628,20.145
	c1.598,0,21.662,0,23.26,0c0.801-1.387,10.83-18.761,11.629-20.145c-0.547-0.947-5.41-9.372-8.686-15.046
	c-9.793,4.041-21.523,7.206-34.348,9.011L190.196,170.091z"/>
<path fill="#FFFFFF" d="M226.404,108.972c-2.979-0.932-6.219-1.716-9.679-2.342h-14.934c-0.42,0.728-3.383,5.857-6.217,10.768
	c16.599,6.424,30.962,10.109,40.49,10.439c0.306-0.529,0.523-0.906,0.615-1.064C236.034,125.652,229.366,114.099,226.404,108.972z"
	/>
<path fill="#FFFFFF" d="M192.798,122.207l-0.318,0.552c-0.632,1.096-1.181,2.044-1.588,2.752c-0.227,0.39-0.405,0.702-0.538,0.931
	c-0.082,0.144-0.152,0.261-0.189,0.331l11.63,20.143h23.258c0.522-0.904,4.963-8.595,8.214-14.227
	c-10.735-1.935-24.383-6.163-39.406-12.32C193.492,121.006,193.133,121.627,192.798,122.207z"/>
<path fill="#FFFFFF" d="M190.164,126.772c0.799,1.384,10.826,18.755,11.628,20.143h0.002L190.164,126.772z"/>
<path fill="#FFFFFF" d="M190.354,126.441c0.133-0.229,0.312-0.541,0.538-0.931L190.354,126.441z"/>
<path fill="#FFFFFF" d="M201.794,146.916c1.604,0,21.66,0,23.258,0c0,0,0,0,0-0.001L201.794,146.916L201.794,146.916z"/>
<rect x="201.792" y="146.915" fill="#FFFFFF" width="0.001" height="0.002"/>
<path fill="#FFFFFF" d="M236.681,83.392c-0.799-1.383-10.828-18.758-11.629-20.141c-1.598,0-21.662,0-23.26,0
	c-0.451,0.781-3.85,6.667-6.864,11.89c13.02,6.946,24.693,14.195,34.312,21.144C232.383,90.841,236.199,84.226,236.681,83.392z"/>
<path fill="#FFFFFF" d="M201.274,102.639c5.492,0.012,10.759,0.315,15.709,0.897h8.068c0.271-0.47,1.6-2.768,3.266-5.655
	c-9.013-7.02-20.624-14.574-33.893-21.87c-2.113,3.662-3.938,6.822-4.261,7.381L201.274,102.639z"/>
<path fill="#FFFFFF" d="M190.164,83.392c0.718,1.245,8.873,15.372,11.11,19.247l0,0L190.164,83.392z"/>
<path fill="#FFFFFF" d="M225.052,103.538c0,0,0-0.001,0-0.002h-8.068c0.007,0.001,0.014,0.001,0.021,0.002
	C221.027,103.538,224.432,103.538,225.052,103.538z"/>
<path fill="#FFFFFF" d="M196.297,159.527c-1.313,0.249-2.636,0.486-3.978,0.703c-0.907,1.57-1.779,3.081-2.532,4.385
	c1.298-0.152,2.584-0.32,3.86-0.5l2.409-4.172C196.137,159.805,196.217,159.666,196.297,159.527z"/>
<path fill="#FFFFFF" d="M117.813,140.938c-1.346-11.701,14.446-23.648,37.907-30.442c-0.239-0.414-0.472-0.818-0.694-1.202
	c-24.953,7.56-41.589,20.446-40.137,33.066c1.47,12.771,21.047,21.593,47.542,23.137c-0.603-1.044-1.312-2.272-2.073-3.59
	C136.617,160.408,119.137,152.435,117.813,140.938z"/>
<path fill="#FFFFFF" d="M201.274,102.639L201.274,102.639c0.254,0.44,0.437,0.756,0.518,0.897L201.274,102.639z"/>
<path fill="#FFFFFF" d="M201.794,103.538c0.98,0,8.867,0,15.21,0c-0.007-0.001-0.014-0.001-0.021-0.002h-15.191L201.794,103.538z"/>
<polygon fill="#FFFFFF" points="201.792,103.538 201.794,103.538 201.792,103.536 "/>
<path fill="#FFFFFF" d="M192.667,116.249c-0.578,1.003-1.147,1.989-1.687,2.923c0.964,0.406,1.924,0.806,2.879,1.196
	c0.552-0.955,1.129-1.956,1.716-2.971C194.614,117.025,193.642,116.64,192.667,116.249z"/>
<path fill="#FFFFFF" d="M102.804,50.802c4.751-9.393,41.052-0.598,81.079,19.646c3.614,1.828,7.132,3.688,10.542,5.563
	c0.166-0.287,0.334-0.577,0.503-0.87c-2.346-1.252-4.728-2.494-7.155-3.723c-43.144-21.819-82.359-31.116-87.596-20.766
	c-4.645,9.183,19.032,30.742,54.559,50.727c0.436-0.755,0.916-1.588,1.423-2.467C121.773,80.008,98.482,59.349,102.804,50.802z"/>
<path fill="#FFFFFF" d="M256.939,126.017c-0.395-3.426-2.109-6.562-4.892-9.354c-4.71-5.965-12.593-12.998-22.809-20.378
	c-0.315,0.547-0.624,1.081-0.922,1.597c5.409,4.214,9.879,8.233,13.208,11.889c-6.593-2.966-14.967-5.107-24.521-6.231
	c-6.343,0-14.229,0-15.21,0h-0.002c0,0,0-0.001,0-0.002c-0.081-0.142-0.264-0.457-0.518-0.897c-1.175-0.002-2.359,0.009-3.554,0.034
	l1.295,2.244c6.33,0.145,12.286,0.733,17.71,1.713h8.326c0.154,0.267,0.649,1.125,1.353,2.342
	c11.479,3.591,19.051,9.358,20.232,16.557c-1.959,1.744-5.608,2.481-10.571,2.309c-0.624,1.082-1.633,2.83-2.8,4.852
	c4.532,0.815,8.542,1.222,11.917,1.192c-3.018,6.009-10.095,11.758-19.922,16.489c0.456,0.788,1.476,2.555,2.734,4.734
	C246.568,147.44,258.161,136.636,256.939,126.017z"/>
<path fill="#FFFFFF" d="M56.56,224.146l1.944,2.285l-1.866,12.215c-0.196,1.193-0.546,2.518-0.546,2.518l8.67-7.379l1.6,1.88
	l-10.538,8.969l-1.883-2.214l1.852-12.162c0.229-1.467,0.568-2.7,0.568-2.7l-8.739,7.438l-1.6-1.88L56.56,224.146z"/>
<path fill="#FFFFFF" d="M61.277,249.937l-2.045-1.744l14.851-5.522l1.998,1.703l-3.317,15.355l-2.116-1.805l0.93-4.174l-6.254-5.332
	L61.277,249.937z M72.786,248.335c0.363-1.583,0.993-3.382,0.993-3.382s-1.676,0.907-3.229,1.476l-3.592,1.372l4.994,4.258
	L72.786,248.335z"/>
<path fill="#FFFFFF" d="M76.923,260.594l7.679,4.753c1.542,0.954,3.207,1.351,4.119-0.122c0.947-1.531,0.095-2.588-1.526-3.591
	l-3.295-2.04c-3.029-1.875-4.326-4.054-2.964-6.254c1.421-2.296,4.239-1.98,7.428-0.007l6.855,4.244l-0.864,1.396l-7.068-4.375
	c-1.701-1.053-3.16-1.427-4.107,0.104c-0.876,1.416-0.05,2.456,1.597,3.476l3.268,2.023c3.109,1.925,4.344,4.145,2.958,6.383
	c-1.409,2.276-4.237,2.035-7.372,0.094l-7.573-4.688L76.923,260.594z"/>
<path fill="#FFFFFF" d="M94.557,272.739l-2.474-1.051l12.514-9.719l2.416,1.026l1.437,15.644l-2.56-1.087l-0.363-4.261l-7.564-3.214
	L94.557,272.739z M105.056,267.763c-0.127-1.618-0.065-3.523-0.065-3.523s-1.328,1.367-2.638,2.375L99.336,269l6.041,2.565
	L105.056,267.763z"/>
<path fill="#FFFFFF" d="M119.586,274.073c0.649-2.75,2.62-3.261,4.542-2.807c1.922,0.454,3.407,1.781,2.757,4.53
	c-0.649,2.749-2.583,3.218-4.506,2.764C120.458,278.106,118.937,276.822,119.586,274.073z"/>
<polygon fill="#FFFFFF" points="137.483,271.138 151.42,272.079 151.31,273.718 139.992,272.953 139.701,277.264 150.083,277.965 
	149.98,279.491 139.598,278.79 139.281,283.481 150.817,284.261 150.706,285.9 136.551,284.943 "/>
<path fill="#FFFFFF" d="M155.2,284.222l9.004-0.702c1.808-0.142,3.386-0.807,3.251-2.533c-0.141-1.795-1.453-2.144-3.354-1.995
	l-3.863,0.301c-3.552,0.277-5.886-0.714-6.087-3.294c-0.21-2.691,2.25-4.103,5.988-4.394l8.038-0.628l0.128,1.638l-8.287,0.646
	c-1.994,0.156-3.392,0.717-3.252,2.511c0.13,1.66,1.411,2.012,3.343,1.86l3.832-0.299c3.645-0.284,5.953,0.777,6.158,3.401
	c0.208,2.67-2.216,4.146-5.893,4.432l-8.879,0.693L155.2,284.222z"/>
<path fill="#FFFFFF" d="M176.607,283.601l-2.616,0.614l4.356-15.234l2.556-0.6l10.399,11.774l-2.707,0.635l-2.811-3.224
	l-8.002,1.877L176.607,283.601z M182.141,273.383c-1.06-1.23-2.135-2.804-2.135-2.804s-0.264,1.888-0.726,3.475l-1.024,3.707
	l6.389-1.498L182.141,273.383z"/>
<path fill="#FFFFFF" d="M197.598,269.889c-1.101-2.602,0.188-4.178,2.006-4.947c1.819-0.769,3.801-0.575,4.901,2.026
	s-0.184,4.122-2.003,4.892S198.697,272.491,197.598,269.889z"/>
<path fill="#FFFFFF" d="M213.059,263.369c-2.381-3.793-0.825-7.664,3.489-10.372l5.135-3.222l0.873,1.391l-4.949,3.106
	c-3.706,2.325-4.057,4.883-2.299,7.685c1.759,2.802,4.202,3.579,7.907,1.254l4.95-3.106l0.873,1.392l-5.135,3.223
	C219.589,267.426,215.426,267.143,213.059,263.369z"/>
<path fill="#FFFFFF" d="M231.398,257.733l6.892-5.837c1.383-1.172,2.273-2.635,1.153-3.956c-1.163-1.374-2.432-0.889-3.886,0.344
	l-2.957,2.504c-2.718,2.303-5.191,2.865-6.864,0.891c-1.745-2.061-0.575-4.644,2.286-7.067l6.152-5.212l1.062,1.253l-6.343,5.374
	c-1.526,1.292-2.332,2.564-1.168,3.938c1.076,1.271,2.32,0.806,3.799-0.447l2.933-2.484c2.79-2.363,5.282-2.853,6.984-0.845
	c1.73,2.043,0.628,4.658-2.186,7.042l-6.795,5.757L231.398,257.733z"/>
<path fill="#FFFFFF" d="M248.386,244.72l-1.765,2.026l-5.364-14.909l1.725-1.979l15.319,3.481l-1.827,2.097l-4.164-0.975
	l-5.398,6.197L248.386,244.72z M246.907,233.195c-1.578-0.381-3.37-1.03-3.37-1.03s0.889,1.687,1.44,3.245l1.334,3.606l4.311-4.948
	L246.907,233.195z"/>
<path fill="#FFFFFF" d="M31.571,136.484l0.502-2.768c0.72-3.966-0.203-4.928-2.372-5.322l-8.767-1.592l0.469-2.583l8.767,1.592
	c3.608,0.655,4.407,3.31,3.559,7.983l-0.542,2.982L31.571,136.484z"/>
<path fill="#FFFFFF" d="M30.039,115.458l-1.615,5.42l-1.466-0.437l1.687-5.661c0.919-3.084,2.774-4.032,5.146-3.325l5.089,1.516
	l-2.124,7.128c-0.678,2.276-1.919,4.156-3.989,3.54c-2.07-0.617-2.094-2.743-1.38-5.139l1.41-4.732
	C31.432,113.46,30.574,113.661,30.039,115.458z M32.79,118.755c-0.366,1.228-0.327,2.12,0.687,2.422
	c1.013,0.302,1.552-0.483,1.9-1.651l1.365-4.583l-2.588-0.771L32.79,118.755z"/>
<path fill="#FFFFFF" d="M34.931,108.335c-2.652-1.233-3.11-3.238-1.608-6.468l3.267-7.028c1.502-3.23,3.33-4.173,5.982-2.94
	l4.631,2.153l-1.054,2.267l-4.448-2.068c-1.816-0.844-2.837-0.836-3.825,1.29l-1.067,2.295l7.101,3.3l-1.054,2.267l-7.101-3.301
	l-1.067,2.295c-0.988,2.125-0.336,2.911,1.48,3.755l4.448,2.067l-1.054,2.267L34.931,108.335z"/>
<path fill="#FFFFFF" d="M50.493,86.339l2.813-4.284l1.279,0.84l-2.899,4.415c-1.715,2.612-4.313,4.271-7.115,2.432
	c-2.802-1.84-2.57-4.94-0.581-7.971c2.281-3.474,4.772-4.193,7.331-2.514l0.677,0.444l-1.39,2.116c0,0-4.014,6.112-4.031,6.138
	C48.388,88.808,49.567,87.75,50.493,86.339z M45.322,82.532c-1.167,1.776-1.449,3.273,0.033,4.583l3.997-6.086
	C47.798,80.195,46.574,80.625,45.322,82.532z"/>
<path fill="#FFFFFF" d="M55.36,79.256l3.87-4.667c0.638-0.77,1.183-1.78,0.456-2.383c-0.762-0.632-1.417-0.16-2.174,0.754
	l-1.396,1.684c-1.376,1.66-3.255,2.903-4.848,1.582c-1.594-1.321-0.485-3.609,0.911-5.293l3.451-4.162l1.178,0.977l-3.551,4.282
	c-0.838,1.01-1.148,1.808-0.49,2.354c0.624,0.517,1.322,0.203,2.12-0.759l1.436-1.732c1.476-1.78,3.238-2.917,4.866-1.567
	c1.646,1.364,0.797,3.34-0.6,5.023l-4.049,4.884L55.36,79.256z"/>
<path fill="#FFFFFF" d="M59.125,55.924l2.17-1.739l7.986,5.018c0.954,0.591,1.867,1.33,1.867,1.33s-0.484-1.054-0.836-2.242
	l-2.701-9.167l2.048-1.641l8.341,4.762c0.936,0.519,1.877,1.293,1.877,1.293s-0.564-1.104-0.891-2.112l-3.011-9.004l2.097-1.681
	l4.532,14.101l-2.048,1.642l-8.507-4.918c-1.207-0.706-1.894-1.164-1.894-1.164s0.322,0.751,0.724,2.102l2.849,9.452l-2.048,1.642
	L59.125,55.924z"/>
<path fill="#FFFFFF" d="M90.938,47.861l4.428-2.582l0.771,1.322l-4.563,2.66c-2.699,1.574-5.764,1.902-7.453-0.994
	c-1.688-2.896-0.099-5.568,3.032-7.394c3.59-2.093,6.141-1.627,7.683,1.016l0.408,0.7l-2.187,1.275c0,0-6.317,3.684-6.344,3.699
	C87.954,49.133,89.481,48.711,90.938,47.861z M88.005,42.149c-1.835,1.07-2.756,2.284-2.013,4.117l6.29-3.668
	C91.264,41.161,89.976,41,88.005,42.149z"/>
<path fill="#FFFFFF" d="M93.968,32.165l2.296-0.989l1.798,4.174l3.416-1.472c3.357-1.447,5.976-1.056,7.231,1.858
	s-0.197,5.229-3.555,6.676l-5.711,2.46L93.968,32.165z M104.317,41.181c2.411-1.039,2.955-2.302,2.047-4.41
	c-0.908-2.107-2.156-2.477-4.566-1.438l-3.157,1.36l2.52,5.848L104.317,41.181z"/>
<path fill="#FFFFFF" d="M108.941,26.016l2.399-0.703l1.278,4.361l3.569-1.045c3.509-1.028,6.06-0.322,6.952,2.722
	s-0.83,5.167-4.339,6.195l-5.968,1.749L108.941,26.016z M118.119,36.222c2.519-0.738,3.213-1.926,2.567-4.128
	c-0.646-2.203-1.839-2.72-4.358-1.982l-3.299,0.967l1.791,6.11L118.119,36.222z"/>
<path fill="#FFFFFF" d="M132.143,32.614l8.982-0.935c1.803-0.188,3.363-0.893,3.184-2.616c-0.187-1.791-1.507-2.105-3.403-1.908
	l-3.854,0.401c-3.543,0.369-5.902-0.562-6.17-3.135c-0.279-2.686,2.144-4.16,5.874-4.548l8.019-0.834l0.17,1.633l-8.268,0.861
	c-1.989,0.207-3.373,0.804-3.186,2.594c0.172,1.656,1.462,1.974,3.389,1.773l3.823-0.398c3.637-0.378,5.972,0.623,6.244,3.241
	c0.277,2.663-2.108,4.201-5.775,4.583l-8.858,0.922L132.143,32.614z"/>
<path fill="#FFFFFF" d="M152.116,36.772l-2.499-0.068l0.363-13.27l6.216,0.17c3.655,0.1,5.866,1.556,5.779,4.727
	s-2.378,4.662-6.033,4.562l-3.718-0.102L152.116,36.772z M155.701,31.423c2.624,0.072,3.649-0.846,3.712-3.14
	c0.063-2.294-0.914-3.154-3.538-3.226l-3.436-0.094l-0.174,6.365L155.701,31.423z"/>
<path fill="#FFFFFF" d="M171.741,26.559l-5.597-0.823l0.223-1.514l5.844,0.859c3.185,0.469,4.387,2.169,4.027,4.618l-0.772,5.254
	l-7.358-1.083c-2.35-0.345-4.389-1.305-4.074-3.442c0.314-2.137,2.416-2.464,4.889-2.101l4.886,0.719
	C173.917,27.652,173.596,26.832,171.741,26.559z M168.87,29.752c-1.268-0.187-2.145-0.02-2.299,1.026
	c-0.153,1.046,0.7,1.468,1.906,1.645l4.73,0.696l0.393-2.671L168.87,29.752z"/>
<path fill="#FFFFFF" d="M178.898,30.971c0.858-3.241,4.068-3.764,6.817-3.036l4.863,1.289l-0.392,1.479l-4.743-1.256
	c-1.691-0.448-3.406-0.321-4.08,2.224c-0.663,2.501,0.823,3.36,2.515,3.809l4.713,1.249l-0.393,1.479l-4.894-1.297
	C180.496,36.166,178.04,34.212,178.898,30.971z"/>
<path fill="#FFFFFF" d="M196.052,39.466l4.775,1.858l-0.555,1.426l-4.922-1.916c-2.912-1.133-5.076-3.327-3.86-6.452
	s4.296-3.543,7.675-2.229c3.873,1.507,5.096,3.794,3.986,6.646l-0.294,0.755l-2.359-0.918c0,0-6.814-2.652-6.844-2.663
	C193.198,37.921,194.479,38.854,196.052,39.466z M198.697,33.615c-1.98-0.771-3.503-0.736-4.475,0.987l6.785,2.64
	C201.499,35.55,200.823,34.442,198.697,33.615z"/>
<polygon fill="#FFFFFF" points="219.822,39.231 214.408,35.926 215.264,34.524 228.334,42.502 227.479,43.904 222.063,40.599 
	215.71,51.008 213.469,49.641 "/>
<path fill="#FFFFFF" d="M224.848,55.422l4.1,3.075l-0.918,1.224l-4.225-3.168c-2.5-1.875-3.994-4.57-1.983-7.252
	c2.012-2.682,5.092-2.257,7.991-0.082c3.325,2.494,3.888,5.025,2.052,7.473l-0.485,0.648l-2.025-1.519c0,0-5.851-4.387-5.875-4.406
	C222.516,53.167,223.497,54.41,224.848,55.422z M228.97,50.498c-1.7-1.275-3.176-1.65-4.575-0.253l5.825,4.369
	C231.147,53.116,230.795,51.867,228.97,50.498z"/>
<rect x="235.431" y="51.227" transform="matrix(-0.7456 -0.6663 0.6663 -0.7456 374.4138 259.2136)" fill="#FFFFFF" width="2.5" height="13.838"/>
<path fill="#FFFFFF" d="M240.47,69.338l3.515,3.729l-1.113,1.049l-3.622-3.843c-2.144-2.274-3.155-5.185-0.716-7.484
	s5.401-1.355,7.888,1.283c2.851,3.024,2.973,5.614,0.746,7.713l-0.59,0.555l-1.735-1.842c0,0-5.016-5.321-5.037-5.344
	C238.557,66.718,239.312,68.11,240.47,69.338z M245.372,65.19c-1.458-1.546-2.849-2.168-4.466-1.03l4.994,5.299
	C247.07,68.141,246.937,66.85,245.372,65.19z"/>
<path fill="#FFFFFF" d="M246.23,75.714l3.644,4.845c0.602,0.799,1.457,1.563,2.213,0.996c0.791-0.595,0.483-1.341-0.23-2.291
	l-1.314-1.748c-1.296-1.724-2.07-3.839-0.416-5.083s3.624,0.364,4.938,2.112l3.249,4.321l-1.223,0.919l-3.343-4.446
	c-0.789-1.049-1.493-1.536-2.177-1.022c-0.647,0.487-0.504,1.239,0.247,2.238l1.353,1.798c1.39,1.848,2.089,3.826,0.398,5.097
	c-1.709,1.285-3.434,0.001-4.749-1.747l-3.813-5.07L246.23,75.714z"/>
<path fill="#FFFFFF" d="M256.286,84.146c2.875-1.724,5.54,0.14,7.002,2.579l2.587,4.315l-1.313,0.787l-2.522-4.208
	c-0.899-1.501-2.218-2.605-4.476-1.252c-2.219,1.331-1.754,2.982-0.854,4.483l2.506,4.182l-1.313,0.787l-2.603-4.342
	C253.808,88.983,253.41,85.869,256.286,84.146z"/>
<path fill="#FFFFFF" d="M262.944,95.361c3.114-1.413,5.626,0.64,7.162,4.026s1.412,6.6-1.703,8.012
	c-3.114,1.413-5.564-0.667-7.101-4.054C259.767,99.959,259.829,96.774,262.944,95.361z M267.325,105.076
	c2.377-1.078,2.601-2.655,1.478-5.131c-1.11-2.448-2.443-3.318-4.82-2.24c-2.377,1.078-2.506,2.646-1.396,5.094
	C263.671,105.189,264.948,106.154,267.325,105.076z"/>
<path fill="#FFFFFF" d="M261.941,115.111l-0.743-2.387l12.676-3.944l1.848,5.938c1.087,3.491,0.423,6.054-2.606,6.997
	s-5.18-0.745-6.267-4.236l-1.104-3.551L261.941,115.111z M268.162,116.776c0.779,2.506,1.979,3.181,4.171,2.499
	c2.191-0.682,2.688-1.884,1.909-4.391l-1.021-3.282l-6.08,1.892L268.162,116.776z"/>
<path fill="#FFFFFF" d="M271.649,130.671l0.919,5.042l-1.505,0.274l-0.947-5.196c-0.56-3.074,0.176-6.067,3.474-6.668
	c3.299-0.601,5.269,1.804,5.919,5.37c0.745,4.089-0.563,6.328-3.573,6.876l-0.797,0.146l-0.453-2.49c0,0-1.312-7.194-1.316-7.225
	C271.472,127.432,271.348,129.011,271.649,130.671z M278.021,129.859c-0.382-2.09-1.209-3.369-3.186-3.295l1.306,7.163
	C277.839,133.259,278.429,132.104,278.021,129.859z"/>
</svg>
