<?xml version="1.0" standalone="no"?>
<!DOCTYPE svg PUBLIC "-//W3C//DTD SVG 20010904//EN"
 "http://www.w3.org/TR/2001/REC-SVG-20010904/DTD/svg10.dtd">
<svg version="1.0" xmlns="http://www.w3.org/2000/svg"
 width="1008.000000pt" height="1572.000000pt" viewBox="0 0 1008.000000 1572.000000"
 preserveAspectRatio="xMidYMid meet">
<metadata>
Created by potrace 1.16, written by Peter Selinger 2001-2019
</metadata>
<g transform="translate(0.000000,1572.000000) scale(0.100000,-0.100000)"
fill="#0a4c80" stroke="none">
<path d="M150 15513 c1 -600 -22 -2713 -30 -2873 -6 -102 -13 -810 -16 -1575
-12 -2520 -10 -2353 -39 -2491 -25 -114 -26 -128 -20 -319 8 -242 -8 -609 -30
-680 -13 -44 -15 -424 -15 -3341 0 -3291 0 -3291 122 -3297 66 -4 2334 -7
5040 -7 l4918 0 0 7395 0 7395 -1969 0 c-1968 0 -1968 0 -1975 -30 -10 -54 -8
-2778 3 -2799 34 -62 162 -134 292 -161 99 -21 93 -19 164 -66 28 -18 82 -42
122 -53 39 -12 93 -36 120 -55 27 -18 81 -47 121 -64 39 -16 89 -44 112 -62
22 -17 67 -45 101 -61 66 -32 202 -124 260 -175 20 -18 62 -48 93 -68 300
-192 972 -857 1138 -1127 15 -24 64 -89 108 -144 44 -55 96 -131 116 -170 20
-38 53 -94 74 -125 64 -96 139 -226 160 -281 12 -30 41 -88 65 -129 24 -41 51
-102 60 -135 9 -33 37 -97 61 -141 27 -50 50 -110 59 -155 9 -41 24 -90 34
-109 10 -19 30 -58 45 -87 18 -36 31 -85 42 -160 12 -81 25 -129 54 -193 53
-116 59 -147 69 -317 7 -140 10 -153 43 -228 60 -134 77 -290 78 -705 0 -223
-6 -264 -50 -313 -29 -33 -220 -167 -238 -167 -6 0 -41 -21 -79 -46 -86 -58
-107 -68 -167 -83 -27 -7 -87 -32 -135 -57 -93 -48 -76 -45 -391 -76 -252 -24
-280 -2 -280 222 0 162 -13 263 -55 435 -42 174 -53 296 -64 720 -9 330 -9
330 -43 435 -41 122 -65 284 -77 511 -8 156 -8 156 -54 255 -42 89 -48 112
-62 229 -14 121 -19 137 -65 230 -28 55 -50 109 -50 120 0 58 -33 164 -69 224
-22 36 -47 94 -55 129 -13 58 -55 144 -75 157 -5 3 -22 38 -37 78 -15 39 -46
99 -69 132 -23 33 -50 82 -61 109 -10 27 -36 72 -58 100 -23 28 -59 74 -81
103 -79 103 -205 250 -326 384 -287 314 -432 469 -452 482 -12 8 -105 90 -207
181 -186 168 -209 183 -255 172 -46 -12 -46 -8 -46 -768 0 -721 0 -721 24
-757 27 -41 102 -85 207 -122 127 -44 273 -175 346 -309 33 -61 28 -248 -10
-323 -43 -88 -165 -207 -241 -236 -33 -12 -74 -33 -92 -47 -71 -54 -110 -64
-284 -70 -234 -9 -324 4 -403 56 -67 45 -93 47 -115 9 -13 -24 -12 -31 18 -94
51 -106 59 -195 73 -840 23 -1035 12 -2122 -22 -2201 -34 -80 0 -77 -861 -65
-415 6 -1527 11 -2472 11 -1887 0 -1760 -4 -1810 61 -95 128 -126 240 -136
504 -7 172 -12 222 -30 275 -52 158 -57 707 -7 885 23 84 29 132 36 295 11
227 17 254 71 361 35 68 42 93 50 175 9 97 25 143 83 237 13 22 31 75 40 120
11 56 28 101 55 147 22 37 51 96 65 133 14 36 41 91 60 121 19 30 46 77 60
103 13 26 39 66 56 88 18 22 45 67 60 100 15 33 65 106 111 163 46 57 100 125
119 150 174 236 352 434 625 696 219 209 261 246 541 467 17 13 74 61 127 107
110 95 228 181 307 225 30 16 75 47 100 67 67 54 218 150 279 177 30 13 78 41
108 63 30 21 84 48 121 59 37 11 93 38 125 60 41 28 80 45 133 57 41 9 115 36
164 60 108 52 168 64 322 64 142 0 150 -3 238 -98 163 -174 258 -298 310 -402
18 -36 48 -84 67 -108 36 -44 73 -106 178 -302 34 -63 71 -131 83 -151 12 -19
31 -61 42 -93 11 -32 37 -90 59 -129 22 -40 49 -109 60 -155 12 -50 33 -100
51 -127 41 -59 55 -95 70 -180 14 -80 64 -195 104 -242 39 -47 81 -45 139 5
46 40 65 49 158 77 67 20 145 76 173 125 21 35 21 36 24 2190 2 1185 0 2224
-3 2308 -7 152 -7 152 -2871 152 -2864 0 -2864 0 -2864 -207z m8585 -9154 c40
-7 81 -24 121 -50 33 -21 89 -49 123 -60 151 -51 432 -337 503 -512 16 -40 42
-92 58 -117 45 -71 59 -113 69 -208 7 -63 20 -112 46 -177 65 -157 64 -134 65
-1240 0 -1078 -5 -1202 -51 -1304 -45 -100 -52 -128 -59 -271 -9 -156 -16
-185 -66 -270 -18 -30 -42 -86 -53 -125 -44 -148 -244 -400 -376 -471 -27 -15
-78 -46 -111 -69 -44 -30 -80 -45 -125 -54 -35 -7 -100 -30 -145 -52 -110 -54
-168 -61 -472 -57 -257 3 -257 3 -342 42 -47 21 -121 49 -166 61 -94 27 -107
33 -194 93 -136 94 -321 297 -371 407 -16 37 -46 91 -65 119 -26 40 -40 77
-54 148 -10 52 -35 131 -55 176 -63 143 -60 81 -60 1467 0 1392 -2 1343 61
1485 19 44 44 122 54 172 15 70 29 106 56 145 20 29 49 84 65 123 60 149 357
446 494 494 28 10 66 28 85 41 97 61 120 68 255 76 172 10 634 2 710 -12z
m-3195 -8 c19 -6 59 -26 90 -45 30 -18 82 -41 115 -51 106 -30 305 -207 417
-371 61 -89 70 -109 88 -191 11 -50 36 -128 55 -172 45 -101 58 -197 53 -383
-5 -214 -15 -223 -253 -223 -227 0 -227 0 -235 275 -5 195 -5 195 -47 276 -23
45 -55 115 -73 156 -31 75 -134 193 -197 226 -59 32 -279 75 -383 76 -126 1
-360 -48 -421 -88 -78 -52 -160 -128 -185 -174 -15 -26 -45 -75 -66 -109 -32
-50 -42 -79 -57 -165 -11 -56 -35 -144 -55 -195 -58 -148 -57 -124 -54 -1438
3 -1210 3 -1210 45 -1300 23 -49 50 -125 61 -167 21 -83 26 -92 117 -224 63
-90 197 -205 281 -240 100 -42 531 -38 630 5 69 31 256 223 279 286 9 28 40
96 68 153 51 103 51 103 59 299 13 306 23 318 268 318 233 0 235 -3 227 -340
-5 -250 -11 -280 -63 -366 -19 -32 -41 -89 -50 -129 -12 -51 -29 -91 -58 -134
-23 -34 -58 -88 -79 -121 -54 -89 -161 -194 -273 -267 -125 -82 -127 -83 -199
-98 -59 -13 -74 -19 -185 -77 -55 -28 -55 -28 -305 -31 -288 -4 -353 4 -441
53 -33 19 -90 41 -127 51 -37 9 -84 28 -106 43 -147 99 -199 135 -220 154 -79
73 -254 328 -287 420 -7 21 -18 76 -24 122 -7 55 -24 118 -50 182 -63 158 -63
155 -66 1288 -4 1286 2 1428 72 1606 26 67 36 113 43 191 10 117 16 136 65
210 20 29 45 80 56 112 51 151 364 457 505 497 35 9 93 35 130 58 37 22 86 43
109 46 22 2 57 7 76 9 74 9 616 -2 650 -13z m-4637 -114 c63 -41 58 94 58
-1698 0 -2050 0 -2047 61 -2159 25 -47 53 -110 62 -141 20 -70 146 -248 207
-291 24 -17 67 -49 95 -69 76 -58 107 -67 289 -84 171 -16 408 -5 516 25 81
23 286 228 319 319 11 31 27 70 37 86 80 144 75 128 84 279 5 77 13 191 19
252 6 70 10 720 10 1745 0 1569 1 1636 19 1675 30 66 68 79 232 79 151 0 179
-8 207 -60 35 -62 27 -3641 -8 -3795 -6 -25 -26 -79 -45 -120 -19 -42 -44
-117 -54 -168 -23 -105 -20 -99 -108 -235 -85 -130 -174 -240 -226 -278 -142
-101 -241 -158 -295 -170 -31 -6 -93 -29 -138 -51 -111 -54 -169 -60 -472 -56
-274 5 -294 8 -409 66 -22 12 -71 29 -109 38 -85 21 -113 34 -189 92 -145 110
-308 282 -371 393 -20 35 -48 83 -61 105 -13 23 -32 86 -43 140 -10 55 -35
137 -54 184 -19 47 -40 114 -45 150 -14 87 -16 3673 -2 3698 30 57 88 73 251
70 110 -3 141 -6 163 -21z"/>
<path d="M8175 5962 c-27 -11 -77 -31 -110 -45 -33 -14 -92 -33 -131 -42 -147
-33 -320 -236 -370 -431 -13 -53 -40 -131 -59 -173 -63 -140 -60 -72 -60
-1416 0 -1355 -3 -1281 60 -1390 23 -39 43 -104 65 -215 7 -36 24 -74 50 -110
22 -30 51 -75 64 -100 34 -64 189 -185 278 -219 78 -29 357 -43 533 -26 202
20 211 23 325 120 171 145 280 318 295 467 11 108 26 169 62 251 51 117 53
151 53 1287 0 1136 0 1130 -60 1260 -29 63 -42 108 -50 173 -13 106 -21 128
-69 192 -21 28 -50 74 -66 104 -29 53 -105 130 -177 178 -20 13 -114 51 -210
84 -207 72 -330 86 -423 51z"/>
</g>
<g transform="translate(0.000000,1572.000000) scale(0.100000,-0.100000)"
fill="#f8c53a" stroke="none">
<path d="M5938 13397 c-3 -2323 -3 -2323 -31 -2365 -29 -45 -105 -95 -172
-113 -107 -30 -137 -43 -177 -78 -24 -21 -63 -51 -88 -66 -25 -16 -50 -35 -57
-44 -21 -27 -15 -111 13 -176 50 -118 62 -165 73 -272 13 -127 25 -149 98
-178 28 -12 68 -33 89 -47 87 -60 102 -63 325 -63 205 0 205 0 353 74 236 119
321 229 321 416 0 134 -50 220 -193 335 -73 58 -107 75 -212 104 -81 22 -143
66 -168 117 -29 59 -35 1488 -8 1616 14 63 14 80 1 155 -12 70 -15 295 -15
1496 0 1412 0 1412 -75 1412 -75 0 -75 0 -77 -2323z"/>
</g>
</svg>
